<?xml version="1.0"?>
<svg xmlns="http://www.w3.org/2000/svg" height="512px" viewBox="0 0 32 32" width="512px" class=""><g><g id="Virus"><g fill="#ff5e57"><circle cx="16" cy="16" r="5" data-original="#FF5E57" class="active-path" data-old_color="#FF5E57" style="fill:#000000"/><circle cx="16" cy="5" r="2" data-original="#FF5E57" class="active-path" data-old_color="#FF5E57" style="fill:#000000"/><circle cx="27" cy="27" r="2" data-original="#FF5E57" class="active-path" data-old_color="#FF5E57" style="fill:#000000"/><circle cx="5" cy="21" r="2" data-original="#FF5E57" class="active-path" data-old_color="#FF5E57" style="fill:#000000"/><circle cx="12" cy="27" r="2" data-original="#FF5E57" class="active-path" data-old_color="#FF5E57" style="fill:#000000"/><circle cx="5" cy="8" r="2" data-original="#FF5E57" class="active-path" data-old_color="#FF5E57" style="fill:#000000"/><circle cx="27" cy="10" r="2" data-original="#FF5E57" class="active-path" data-old_color="#FF5E57" style="fill:#000000"/></g><path d="m27 24a2.9673 2.9673 0 0 0 -1.2853.3l-4.83-4.8294a5.9377 5.9377 0 0 0 .7785-5.4339l3.2857-1.8593a2.9918 2.9918 0 1 0 -.9489-2.1774 2.9636 2.9636 0 0 0 .04.3953l-3.338 1.8889a5.996 5.996 0 0 0 -3.702-2.1942v-2.2743a3 3 0 1 0 -2 0v2.2743a6.0059 6.0059 0 0 0 -3.9587 2.5369l-3.3419-3.3415a2.9664 2.9664 0 0 0 .3006-1.2854 3 3 0 1 0 -3 3 2.9673 2.9673 0 0 0 1.2853-.3l3.8893 3.8891a5.823 5.823 0 0 0 -.0267 2.7193l-3.071 1.5359a2.994 2.994 0 1 0 .9231 2.1557 2.936 2.936 0 0 0 -.0367-.363l2.9475-1.4742a6.03 6.03 0 0 0 2.7166 2.346l-1.2639 2.5279a2.9655 2.9655 0 0 0 -.3635-.0367 3.015 3.015 0 1 0 2.1565.9233l1.4711-2.9421c.1238.0076.2467.0188.3724.0188a5.961 5.961 0 0 0 3.4711-1.1149l4.8295 4.8295a2.9664 2.9664 0 0 0 -.3006 1.2854 3 3 0 1 0 3-3zm0-15a1 1 0 1 1 -1 1 1.0006 1.0006 0 0 1 1-1zm-23-1a1 1 0 1 1 1 1 1.0006 1.0006 0 0 1 -1-1zm1 14a1 1 0 1 1 1-1 1.0006 1.0006 0 0 1 -1 1zm7 6a1 1 0 1 1 1-1 1.0006 1.0006 0 0 1 -1 1zm4-24a1 1 0 1 1 -1 1 1.0006 1.0006 0 0 1 1-1zm-4 12a4 4 0 1 1 4 4 4.0039 4.0039 0 0 1 -4-4zm15 12a1 1 0 1 1 1-1 1.0006 1.0006 0 0 1 -1 1z" fill="#232835" data-original="#232835" class="" style="fill:#000000" data-old_color="#232835"/></g></g> </svg>
